<?xml version="1.0" encoding="UTF-8" standalone="no"?>
<svg width="142px" height="141px" viewBox="0 0 142 141" version="1.1" xmlns="http://www.w3.org/2000/svg" xmlns:xlink="http://www.w3.org/1999/xlink">
    <!-- Generator: Sketch 47.1 (45422) - http://www.bohemiancoding.com/sketch -->
    <title>automation</title>
    <desc>Created with Sketch.</desc>
    <defs></defs>
    <g id="Page-1" stroke="none" stroke-width="1" fill="none" fill-rule="evenodd">
        <g id="Home" transform="translate(-792.000000, -2162.000000)" fill="#000000">
            <g id="automation" transform="translate(792.000000, 2162.000000)">
                <g id="Group">
                    <path d="M123.529412,105.75 C123.529412,115.487813 115.632353,123.375 105.882353,123.375 C96.1323529,123.375 88.2352941,115.487813 88.2352941,105.75 C88.2352941,96.0121875 96.1323529,88.125 105.882353,88.125 C115.632353,88.125 123.529412,96.0121875 123.529412,105.75 L123.529412,105.75 Z" id="Shape"></path>
                    <path d="M103.235294,141 L103.235294,141 C96.1764706,141 89.1176471,139.2375 82.9411765,134.83125 L28.2352941,105.75 C23.8235294,102.225 20.2941176,100.4625 16.7647059,96.9375 C6.17647059,86.3625 0,71.38125 0,56.4 C0,41.41875 6.17647059,27.31875 16.7647059,16.74375 C27.3529412,6.16875 41.4705882,0 56.4705882,0 C71.4705882,0 85.5882353,6.16875 97.0588235,16.74375 C100.588235,20.26875 102.352941,22.9125 105.882353,27.31875 L136.764706,83.71875 C145.588235,98.7 142.941176,117.20625 130.588235,129.54375 C122.647059,137.475 113.823529,141 103.235294,141 L103.235294,141 Z M56.4705882,8.8125 C44.1176471,8.8125 31.7647059,14.1 22.9411765,22.9125 C14.1176471,31.725 8.82352941,44.0625 8.82352941,56.4 C8.82352941,69.61875 14.1176471,81.075 22.9411765,89.8875 C25.5882353,92.53125 28.2352941,94.29375 32.6470588,96.9375 L88.2352941,126.9 C93.5294118,130.425 98.8235294,131.30625 104.117647,131.30625 L104.117647,131.30625 C112.058824,131.30625 119.117647,128.6625 124.411765,122.49375 C134.117647,112.8 135.882353,98.7 128.823529,87.24375 L97.9411765,30.84375 C95.2941176,27.31875 93.5294118,24.675 90.8823529,22.03125 C81.1764706,14.1 69.7058824,8.8125 56.4705882,8.8125 L56.4705882,8.8125 Z" id="Shape"></path>
                    <path d="M97.0588235,61.6875 L97.0588235,52.875 L84.7058824,48.46875 C83.8235294,46.70625 83.8235294,45.825 82.9411765,44.0625 L88.2352941,32.60625 L82.0588235,26.4375 L70.5882353,31.725 C68.8235294,30.84375 67.9411765,30.84375 66.1764706,29.9625 L61.7647059,17.625 L52.9411765,17.625 L48.5294118,29.9625 C46.7647059,30.84375 45.8823529,30.84375 44.1176471,31.725 L32.6470588,26.4375 L26.4705882,32.60625 L31.7647059,44.0625 C30.8823529,45.825 30.8823529,46.70625 30,48.46875 L17.6470588,52.875 L17.6470588,61.6875 L30,66.09375 C30.8823529,67.85625 30.8823529,68.7375 31.7647059,70.5 L26.4705882,81.95625 L32.6470588,88.125 L44.1176471,82.8375 C45.8823529,83.71875 46.7647059,84.6 48.5294118,84.6 L52.9411765,96.9375 L61.7647059,96.9375 L66.1764706,84.6 C67.9411765,83.71875 68.8235294,83.71875 70.5882353,82.8375 L82.0588235,88.125 L88.2352941,81.95625 L82.9411765,70.5 C83.8235294,68.7375 84.7058824,67.85625 84.7058824,66.09375 L97.0588235,61.6875 L97.0588235,61.6875 Z M57.3529412,70.5 C50.2941176,70.5 44.1176471,64.33125 44.1176471,57.28125 C44.1176471,50.23125 50.2941176,44.0625 57.3529412,44.0625 C64.4117647,44.0625 70.5882353,50.23125 70.5882353,57.28125 C70.5882353,64.33125 64.4117647,70.5 57.3529412,70.5 L57.3529412,70.5 Z" id="Shape"></path>
                </g>
            </g>
        </g>
    </g>
</svg>