<?xml version="1.0" encoding="UTF-8" standalone="no"?>
<svg width="62px" height="66px" viewBox="0 0 62 66" version="1.1" xmlns="http://www.w3.org/2000/svg" xmlns:xlink="http://www.w3.org/1999/xlink">
    <!-- Generator: Sketch 47.1 (45422) - http://www.bohemiancoding.com/sketch -->
    <title>Shape</title>
    <desc>Created with Sketch.</desc>
    <defs></defs>
    <g id="Page-1" stroke="none" stroke-width="1" fill="none" fill-rule="evenodd" opacity="0.81">
        <g id="noun_682973_cc" fill-rule="nonzero" fill="#FFFFFF">
            <path d="M61.63,4.63 L61.63,45.13 C61.63,45.6822847 61.1822847,46.13 60.63,46.13 L36.44,46.13 C35.8877153,46.13 35.44,45.6822847 35.44,45.13 C35.44,44.5777153 35.8877153,44.13 36.44,44.13 L59.63,44.13 L59.63,5.63 L2.38,5.63 L2.38,44.13 L30.69,44.13 C30.7432364,44.1254527 30.7967636,44.1254527 30.85,44.13 C30.9032364,44.1254527 30.9567636,44.1254527 31.01,44.13 C31.5622847,44.13 32.01,44.5777153 32.01,45.13 L32.01,50.72 L45.27,64 C45.6097768,64.3967603 45.5869323,64.9881942 45.2175632,65.3575632 C44.8481942,65.7269323 44.2567603,65.7497768 43.86,65.41 L31,52.54 L18,65.54 C17.6032397,65.8797768 17.0118058,65.8569323 16.6424368,65.4875632 C16.2730677,65.1181942 16.2502232,64.5267603 16.59,64.13 L30,50.71 L30,46.13 L1.38,46.13 C0.82771525,46.13 0.38,45.6822847 0.38,45.13 L0.38,4.63 C0.38,4.07771525 0.82771525,3.63 1.38,3.63 L29.91,3.63 L29.91,1.13 C29.91,0.57771525 30.3577153,0.13 30.91,0.13 C31.4622847,0.13 31.91,0.57771525 31.91,1.13 L31.91,3.63 L60.63,3.63 C61.1822847,3.63 61.63,4.07771525 61.63,4.63 Z M45.57,20.63 C45.57,20.0777153 45.1222847,19.63 44.57,19.63 L17.25,19.63 C16.6977153,19.63 16.25,20.0777153 16.25,20.63 C16.25,21.1822847 16.6977153,21.63 17.25,21.63 L44.56,21.63 C45.1122847,21.63 45.56,21.1822847 45.56,20.63 L45.57,20.63 Z M17.26,27.63 C16.7077153,27.63 16.26,28.0777153 16.26,28.63 C16.26,29.1822847 16.7077153,29.63 17.26,29.63 L29.56,29.63 C30.1122847,29.63 30.56,29.1822847 30.56,28.63 C30.56,28.0777153 30.1122847,27.63 29.56,27.63 L17.25,27.63 L17.26,27.63 Z" id="Shape"></path>
        </g>
    </g>
</svg>