<?xml version="1.0" encoding="UTF-8" standalone="no"?>
<svg width="46px" height="46px" viewBox="0 0 46 46" version="1.1" xmlns="http://www.w3.org/2000/svg" xmlns:xlink="http://www.w3.org/1999/xlink">
    <!-- Generator: Sketch 47.1 (45422) - http://www.bohemiancoding.com/sketch -->
    <title>noun_1119492_cc</title>
    <desc>Created with Sketch.</desc>
    <defs></defs>
    <g id="Page-1" stroke="none" stroke-width="1" fill="none" fill-rule="evenodd" opacity="0.822469683">
        <g id="noun_1119492_cc" fill-rule="nonzero" fill="#FFFFFF">
            <path d="M41.063,32.436 L4.938,32.436 C2.732,32.436 0.938,30.642 0.938,28.436 L0.938,4.186 C0.938,1.98 2.732,0.186 4.938,0.186 L41.063,0.186 C43.269,0.186 45.063,1.98 45.063,4.186 L45.063,28.436 C45.063,30.642 43.269,32.436 41.063,32.436 Z M4.938,2.186 C3.835,2.186 2.938,3.083 2.938,4.186 L2.938,28.436 C2.938,29.539 3.835,30.436 4.938,30.436 L41.063,30.436 C42.166,30.436 43.063,29.539 43.063,28.436 L43.063,4.186 C43.063,3.083 42.166,2.186 41.063,2.186 L4.938,2.186 Z" id="Shape"></path>
            <path d="M41.813,39.228 L4.188,39.228 C2.465,39.228 1.063,37.826 1.063,36.103 C1.063,34.38 2.465,32.978 4.188,32.978 L41.813,32.978 C43.536,32.978 44.938,34.38 44.938,36.103 C44.938,37.826 43.535,39.228 41.813,39.228 Z M4.188,34.978 C3.568,34.978 3.063,35.483 3.063,36.103 C3.063,36.723 3.568,37.228 4.188,37.228 L41.813,37.228 C42.433,37.228 42.938,36.723 42.938,36.103 C42.938,35.483 42.433,34.978 41.813,34.978 L4.188,34.978 Z" id="Shape"></path>
            <path d="M22.684,38.521 L19.172,43.244 C18.719,43.852 17.801,43.989 17.189,43.534 C16.885,43.308 16.688,42.978 16.633,42.604 C16.578,42.23 16.673,41.856 16.898,41.552 L19.268,38.364 C19.203,38.369 19.144,38.384 19.076,38.384 C18.298,38.384 17.712,38.089 17.31,37.648 L15.293,40.359 C14.748,41.091 14.521,41.992 14.654,42.895 C14.787,43.797 15.263,44.594 15.995,45.138 C16.589,45.58 17.294,45.815 18.034,45.815 C19.11,45.815 20.135,45.299 20.777,44.437 L23.971,40.143 C23.274,39.833 22.851,39.213 22.684,38.521 Z" id="Shape"></path>
            <path d="M30.709,40.358 L28.837,37.841 C28.486,38.057 28.062,38.195 27.544,38.195 C27.121,38.195 26.757,38.105 26.445,37.956 C26.44,37.957 26.437,37.959 26.432,37.96 L29.103,41.551 C29.57,42.178 29.439,43.068 28.813,43.533 C28.203,43.99 27.282,43.849 26.831,43.242 L23.102,38.227 C23.065,38.178 23.048,38.121 23.025,38.065 C22.878,38.104 22.72,38.13 22.555,38.146 C22.559,38.807 22.333,39.464 21.887,39.944 L25.226,44.435 C25.868,45.298 26.894,45.813 27.97,45.813 C28.708,45.813 29.412,45.58 30.008,45.137 C31.519,44.014 31.833,41.869 30.709,40.358 Z" id="Shape"></path>
        </g>
    </g>
</svg>