<?xml version="1.0" encoding="UTF-8" standalone="no"?>
<svg width="62px" height="36px" viewBox="0 0 62 36" version="1.1" xmlns="http://www.w3.org/2000/svg" xmlns:xlink="http://www.w3.org/1999/xlink">
    <!-- Generator: Sketch 47.1 (45422) - http://www.bohemiancoding.com/sketch -->
    <title>Shape</title>
    <desc>Created with Sketch.</desc>
    <defs></defs>
    <g id="Page-1" stroke="none" stroke-width="1" fill="none" fill-rule="evenodd">
        <g id="noun_981948_cc" transform="translate(0.000000, -1.000000)" fill-rule="nonzero" fill="#515151">
            <g id="Group" transform="translate(0.000000, 0.637820)">
                <path d="M37.87505,0.35531 C37.51875,0.39731 37.19455,0.64681 37.06245,0.98031 L23.06245,34.9803 C22.85795,35.4712 23.11845,36.1039 23.60935,36.3085 C24.10015,36.513 24.73295,36.2525 24.93745,35.7616 L38.93745,1.76161 C39.23795,1.10851 38.58545,0.24471 37.87505,0.35531 Z M16.40625,5.57411 L0.40625,17.5741 C-0.08355,17.9455 -0.08355,18.7964 0.40625,19.1678 L16.40625,31.1678 C16.81575,31.5517 17.55685,31.4857 17.89215,31.0357 C18.22745,30.5857 18.07865,29.8567 17.59375,29.5741 L2.65625,18.3866 L17.59375,7.16781 C17.94725,6.91681 18.10265,6.41971 17.95505,6.01201 C17.80735,5.60431 17.36975,5.32191 16.93745,5.35531 C16.69535,5.35531 16.55395,5.51331 16.40625,5.57411 Z M44.40625,7.16781 L59.34375,18.3866 L44.40625,29.5741 C43.92135,29.8567 43.77255,30.5857 44.10785,31.0357 C44.44315,31.4857 45.18425,31.5517 45.59375,31.1678 L61.59375,19.1678 C62.08355,18.7964 62.08355,17.9455 61.59375,17.5741 L45.59375,5.57411 C45.40995,5.42701 45.17275,5.34791 44.93745,5.35531 C43.84125,5.67311 43.92085,6.68101 44.40625,7.16781 Z" id="Shape"></path>
            </g>
        </g>
    </g>
</svg>