<?xml version="1.0" encoding="UTF-8" standalone="no"?>
<svg width="78px" height="58px" viewBox="0 0 78 58" version="1.1" xmlns="http://www.w3.org/2000/svg" xmlns:xlink="http://www.w3.org/1999/xlink">
    <!-- Generator: Sketch 47.1 (45422) - http://www.bohemiancoding.com/sketch -->
    <title>noun_968256_cc</title>
    <desc>Created with Sketch.</desc>
    <defs></defs>
    <g id="Page-1" stroke="none" stroke-width="1" fill="none" fill-rule="evenodd" fill-opacity="0.8">
        <g id="noun_968256_cc" fill-rule="nonzero" fill="#FFFFFF">
            <path d="M23.144,6.675 C22.33,5.925 21.064,5.978 20.318,6.791 L1.104,27.645 C0.398,28.411 0.398,29.589 1.104,30.355 L20.317,51.209 C20.712,51.637 21.249,51.854 21.789,51.854 C22.273,51.854 22.759,51.679 23.143,51.325 C23.956,50.577 24.007,49.311 23.258,48.499 L5.295,29 L23.259,9.5 C24.008,8.688 23.956,7.423 23.144,6.675 Z M76.896,27.645 L57.683,6.791 C56.934,5.978 55.67,5.926 54.857,6.675 C54.044,7.423 53.993,8.689 54.742,9.501 L72.705,29 L54.741,48.5 C53.992,49.312 54.044,50.578 54.856,51.326 C55.241,51.68 55.726,51.855 56.21,51.855 C56.75,51.855 57.288,51.638 57.682,51.21 L76.895,30.356 C77.602,29.589 77.602,28.411 76.896,27.645 Z M50.237,0.647 C49.207,0.24 48.048,0.743 47.64,1.77 L26.64,54.756 C26.233,55.783 26.736,56.945 27.762,57.352 C28.004,57.448 28.253,57.493 28.498,57.493 C29.295,57.493 30.047,57.014 30.358,56.229 L51.358,3.243 C51.767,2.217 51.264,1.055 50.237,0.647 Z" id="Shape"></path>
        </g>
    </g>
</svg>