<?xml version="1.0" encoding="UTF-8" standalone="no"?>
<svg width="148px" height="111px" viewBox="0 0 148 111" version="1.1" xmlns="http://www.w3.org/2000/svg" xmlns:xlink="http://www.w3.org/1999/xlink">
    <!-- Generator: Sketch 47.1 (45422) - http://www.bohemiancoding.com/sketch -->
    <title>code</title>
    <desc>Created with Sketch.</desc>
    <defs></defs>
    <g id="Page-1" stroke="none" stroke-width="1" fill="none" fill-rule="evenodd">
        <g id="Home" transform="translate(-781.000000, -1795.000000)" fill="#000000">
            <g id="Skills" transform="translate(314.000000, 1772.000000)">
                <g id="code" transform="translate(467.000000, 23.000000)">
                    <g id="Capa_1">
                        <g id="Group">
                            <path d="M92.1850402,1.55710687 L87.1745468,0.186129771 C86.5296291,-0.0285267176 85.8943327,0.0389770992 85.2765813,0.388076336 C84.6568489,0.737458015 84.2383174,1.2619542 84.0232505,1.96071756 L53.8872811,106.065725 C53.6722141,106.764771 53.7395641,107.423992 54.0896138,108.041412 C54.4396635,108.659962 54.9640306,109.076565 55.665262,109.291221 L60.6743403,110.662763 C61.320673,110.879115 61.9537055,110.811328 62.5731549,110.461664 C63.1928872,110.110588 63.6105698,109.587786 63.8253537,108.890153 L93.9621721,4.78345038 C94.176956,4.08468702 94.1101721,3.42546565 93.7595564,2.80663359 C93.4092237,2.18808397 92.8854226,1.77148092 92.1850402,1.55710687 L92.1850402,1.55710687 Z" id="Shape"></path>
                            <path d="M47.0224015,21.8794275 C47.0224015,21.1806641 46.7527189,20.5618321 46.2142027,20.024626 L42.1740574,15.9924733 C41.6355411,15.4549847 41.0158088,15.1855344 40.3157094,15.1855344 C39.6156099,15.1855344 38.9955946,15.4552672 38.4573614,15.9924733 L0.808198853,53.5697863 C0.268833652,54.1072748 0,54.7258244 0,55.4245878 C0,56.1233511 0.2696826,56.7419008 0.808198853,57.2791069 L38.4570784,94.8564198 C38.9953117,95.3947557 39.614195,95.6625115 40.3154264,95.6625115 C41.0166577,95.6625115 41.6355411,95.3939084 42.1737744,94.8564198 L46.2139197,90.8265267 C46.7524359,90.2893206 47.0221185,89.6704885 47.0221185,88.9708779 C47.0221185,88.2729618 46.7524359,87.6544122 46.2139197,87.1172061 L14.4624015,55.4245878 L46.2142027,23.734229 C46.7535679,23.1970229 47.0224015,22.5781908 47.0224015,21.8794275 L47.0224015,21.8794275 Z" id="Shape"></path>
                            <path d="M147.04182,53.5689389 L109.391809,15.991626 C108.853576,15.4544198 108.23356,15.184687 107.534593,15.184687 C106.833361,15.184687 106.21561,15.4544198 105.675396,15.991626 L101.636948,20.0234962 C101.098715,20.5609847 100.830164,21.178687 100.830164,21.8782977 C100.830164,22.5779084 101.098432,23.1958931 101.636948,23.7330992 L133.389315,55.4243053 L101.636948,87.1172061 C101.098715,87.6544122 100.830164,88.2732443 100.830164,88.9708779 C100.830164,89.670771 101.098432,90.2893206 101.636948,90.8265267 L105.675396,94.8564198 C106.21561,95.3947557 106.833644,95.6625115 107.534593,95.6625115 C108.233843,95.6625115 108.853576,95.3939084 109.391809,94.8564198 L147.04182,57.2793893 C147.580337,56.7421832 147.849453,56.1225038 147.849453,55.4237405 C147.849453,54.7246947 147.580337,54.106145 147.04182,53.5689389 L147.04182,53.5689389 Z" id="Shape"></path>
                        </g>
                    </g>
                </g>
            </g>
        </g>
    </g>
</svg>