<?xml version="1.0" encoding="UTF-8" standalone="no"?>
<svg width="185px" height="105px" viewBox="0 0 185 105" version="1.1" xmlns="http://www.w3.org/2000/svg" xmlns:xlink="http://www.w3.org/1999/xlink">
    <!-- Generator: Sketch 47.1 (45422) - http://www.bohemiancoding.com/sketch -->
    <title>Group 2</title>
    <desc>Created with Sketch.</desc>
    <defs></defs>
    <g id="Page-1" stroke="none" stroke-width="1" fill="none" fill-rule="evenodd">
        <g id="Group-2" transform="translate(0.000000, -3.000000)" fill-rule="nonzero" fill="#FFFFFF">
            <g id="noun_981948_cc-(1)">
                <g id="Group" transform="translate(0.000000, 1.631633)">
                    <path d="M112.542689,1.47708833 C111.482883,1.59938493 110.518558,2.32588493 110.12563,3.29697813 L68.4829779,102.298954 C67.8746977,103.728368 68.6495485,105.570679 70.1097183,106.166438 C71.5695907,106.761906 73.4518386,106.003376 74.0601188,104.573962 L115.702771,5.57198597 C116.596601,3.67027392 114.655756,1.15504063 112.542689,1.47708833 Z M48.6842762,16.6733137 L1.09267345,51.6151687 C-0.364224485,52.69662 -0.364224485,55.1742908 1.09267345,56.2557421 L48.6842762,91.1976262 C49.9023238,92.3154753 52.1067073,92.123295 53.1040489,90.8129743 C54.1013904,89.5026536 53.6587885,87.3799342 52.2164655,86.5570528 L7.78524259,53.9810255 L52.2164655,21.3138871 C53.2679425,20.5830194 53.7301759,19.1355518 53.2911434,17.9484013 C52.8518134,16.7612508 51.550183,15.9389518 50.2643174,16.0362067 C49.544197,16.0362067 49.1236062,16.4962748 48.6842762,16.6733137 Z M131.969581,21.3138871 L176.400804,53.9810255 L131.969581,86.5570528 C130.527258,87.3799342 130.084656,89.5026536 131.081998,90.8129743 C132.079339,92.123295 134.283723,92.3154753 135.50177,91.1976262 L183.093373,56.2557421 C184.550271,55.1742908 184.550271,52.69662 183.093373,51.6151687 L135.50177,16.6733137 C134.955062,16.2449845 134.249516,16.0146592 133.549622,16.0362067 C130.289003,16.9615843 130.525771,19.8964114 131.969581,21.3138871 Z" id="Shape"></path>
                </g>
            </g>
        </g>
    </g>
</svg>