<?xml version="1.0" encoding="UTF-8" standalone="no"?>
<svg width="134px" height="134px" viewBox="0 0 134 134" version="1.1" xmlns="http://www.w3.org/2000/svg" xmlns:xlink="http://www.w3.org/1999/xlink">
    <!-- Generator: Sketch 47.1 (45422) - http://www.bohemiancoding.com/sketch -->
    <title>Group</title>
    <desc>Created with Sketch.</desc>
    <defs></defs>
    <g id="Page-1" stroke="none" stroke-width="1" fill="none" fill-rule="evenodd">
        <g id="Home" transform="translate(-314.000000, -1772.000000)" fill="#000000">
            <g id="Skills" transform="translate(314.000000, 1772.000000)">
                <g id="Group">
                    <path d="M67,22.2330612 C46.7085714,22.2330612 32.0506122,37.3559184 29.7261224,53.6 C28.2767347,64.4293878 31.7771429,74.9853061 39.0514286,82.9706122 C45.4506122,89.8073469 48.9510204,98.9412245 48.9510204,108.348571 L48.9236735,123.170612 C48.9236735,129.159592 53.8734694,134 59.9991837,134 L74.2742857,134 C80.4,134 85.3497959,129.159592 85.3497959,123.170612 L85.3771429,108.348571 C85.3771429,98.6677551 88.5767347,89.8073469 94.702449,83.544898 C101.402449,76.7081633 104.902857,67.875102 104.902857,58.7412245 C104.87551,38.4771429 87.6742857,22.2330612 67,22.2330612 L67,22.2330612 Z M79.7983673,123.170612 C79.7983673,126.014694 77.4738776,128.311837 74.5477551,128.311837 L60.2726531,128.311837 C57.3465306,128.311837 55.0220408,126.042041 55.0220408,123.170612 L55.0220408,116.607347 L79.7710204,116.607347 L79.7710204,123.170612 L79.7983673,123.170612 Z M90.6277551,79.5522449 C83.3534694,86.9632653 79.5522449,97.2183673 79.5522449,108.348571 L79.5522449,110.919184 L54.8032653,110.919184 L54.8032653,108.348571 C54.8032653,97.7926531 50.4277551,87.2640816 43.1534694,79.2787755 C36.7542857,72.4420408 34.1289796,63.6089796 35.277551,54.475102 C37.3285714,40.8016327 50.044898,27.9485714 67.0273469,27.9485714 C84.8028571,27.9485714 99.0779592,41.9228571 99.0779592,58.7412245 C99.0779592,66.4257143 96.1518367,73.8367347 90.6277551,79.5522449 L90.6277551,79.5522449 Z" id="Shape"></path>
                    <rect id="Rectangle-path" x="64.0738776" y="0" width="5.82489796" height="13.6734694"></rect>
                    <polygon id="Shape" points="102.304898 26.362449 106.379592 30.4371429 116.361224 20.8383673 112.259184 16.7636735"></polygon>
                    <rect id="Rectangle-path" x="119.724898" y="61.5853061" width="14.275102" height="5.7155102"></rect>
                    <rect id="Rectangle-path" x="0" y="61.5853061" width="14.275102" height="5.7155102"></rect>
                    <polygon id="Shape" points="21.6314286 16.7363265 17.5293878 20.8110204 27.5110204 30.4097959 31.5857143 26.335102"></polygon>
                </g>
            </g>
        </g>
    </g>
</svg>