<?xml version="1.0" encoding="UTF-8" standalone="no"?>
<svg width="82px" height="90px" viewBox="0 0 82 90" version="1.1" xmlns="http://www.w3.org/2000/svg" xmlns:xlink="http://www.w3.org/1999/xlink">
    <!-- Generator: Sketch 47.1 (45422) - http://www.bohemiancoding.com/sketch -->
    <title>Shape</title>
    <desc>Created with Sketch.</desc>
    <defs></defs>
    <g id="Page-1" stroke="none" stroke-width="1" fill="none" fill-rule="evenodd">
        <g id="noun_1320282_cc" transform="translate(0.000000, -1.000000)" fill-rule="nonzero" fill="#515151">
            <g id="Group" transform="translate(0.000000, 0.637820)">
                <path d="M41,0.36214 C40.4477,0.36214 40,0.80984 40,1.36214 L40,9.36214 C40,9.91444 40.4477,10.36214 41,10.36214 C41.5523,10.36214 42,9.91444 42,9.36214 L42,1.36214 C42,0.80984 41.5523,0.36214 41,0.36214 Z M12.7188,12.08089 C12.4627,12.08089 12.1953,12.16689 12,12.36214 C11.6095,12.75264 11.6095,13.40914 12,13.79964 L17.6562,19.45589 C18.0467,19.84649 18.7033,19.84649 19.0938,19.45589 C19.4841,19.06539 19.4841,18.40899 19.0938,18.01839 L13.4375,12.36214 C13.2423,12.16684 12.9746,12.08089 12.7188,12.08089 Z M69.2812,12.08089 C69.0253,12.08089 68.7578,12.16689 68.5625,12.36214 L62.9062,18.01839 C62.5159,18.40899 62.5159,19.06539 62.9062,19.45589 C63.2967,19.84649 63.9533,19.84649 64.3438,19.45589 L70,13.79964 C70.3905,13.40914 70.3905,12.75264 70,12.36214 C69.8047,12.16684 69.5373,12.08089 69.2812,12.08089 Z M41,16.36214 C28.2876,16.36214 16,26.23551 16,40.20589 C16,49.1374 19.4118,54.6643 22.6875,59.2997 C25.9632,63.9351 29,67.6405 29,73.3622 L29,85.3622 C29,88.2084 31.3519,90.3622 34,90.3622 L48,90.3622 C50.6481,90.3622 53,88.2084 53,85.3622 L53,73.3622 C53,67.6405 56.0368,63.9351 59.3125,59.2997 C62.5882,54.6643 66,49.1374 66,40.20589 C66,26.23551 53.7124,16.36214 41,16.36214 Z M41,18.36214 C52.678,18.36214 64,27.41167 64,40.20589 C64,48.6383 60.9118,53.5807 57.6875,58.1434 C54.6329,62.466 51.3669,66.4803 51.0312,72.3622 L30.9688,72.3622 C30.6331,66.4803 27.3671,62.466 24.3125,58.1434 C21.0882,53.5807 18,48.6383 18,40.20589 C18,27.41167 29.322,18.36214 41,18.36214 Z M38.875,23.48714 C29.9287,24.53064 23,32.14577 23,41.36211 C23,43.2028 23.2678,44.9707 23.7812,46.6434 C23.9367,47.1506 24.5552,47.4863 25.0625,47.3309 C25.5697,47.1754 25.8741,46.5569 25.7188,46.0496 C25.262,44.5622 25,42.99981 25,41.36211 C25,33.14771 31.1697,26.38379 39.125,25.45589 C39.6486,25.41499 40.1034,24.91699 40.0625,24.39339 C39.9273,23.58023 39.5075,23.4471 38.875,23.48714 L38.875,23.48714 Z M1,40.36211 C0.4477,40.36211 0,40.80981 0,41.36211 C0,41.91441 0.4477,42.36211 1,42.36211 L9,42.36211 C9.5523,42.36211 10,41.91441 10,41.36211 C10,40.80981 9.5523,40.36211 9,40.36211 L1,40.36211 Z M73,40.36211 C72.4477,40.36211 72,40.80981 72,41.36211 C72,41.91441 72.4477,42.36211 73,42.36211 L81,42.36211 C81.5523,42.36211 82,41.91441 82,41.36211 C82,40.80981 81.5523,40.36211 81,40.36211 L73,40.36211 Z M31,74.3622 L51,74.3622 L51,80.3622 L31,80.3622 L31,74.3622 Z M31,82.3622 L51,82.3622 L51,85.3622 C51,87.1122 49.5729,88.3622 48,88.3622 L34,88.3622 C32.4271,88.3622 31,87.1122 31,85.3622 L31,82.3622 Z" id="Shape"></path>
            </g>
        </g>
    </g>
</svg>