<?xml version="1.0" encoding="UTF-8" standalone="no"?>
<svg width="84px" height="72px" viewBox="0 0 84 72" version="1.1" xmlns="http://www.w3.org/2000/svg" xmlns:xlink="http://www.w3.org/1999/xlink">
    <!-- Generator: Sketch 47.1 (45422) - http://www.bohemiancoding.com/sketch -->
    <title>noun_1366121_cc</title>
    <desc>Created with Sketch.</desc>
    <defs></defs>
    <g id="Page-1" stroke="none" stroke-width="1" fill="none" fill-rule="evenodd">
        <g id="noun_1366121_cc">
            <path d="M7.92,53.22 C7.92,53.22 8.36771525,54.22 8.92,54.22 L36.77,54.22 L20.64,70.35 L22,71.77 L39.6,54.22 L44.4,54.22 L62,71.77 L63.41,70.36 L47.23,54.22 L75.08,54.22 C75.6322847,54.22 76.08,53.7722847 76.08,53.22 L76.08,2.22 L82.5430794,2.22 C82.8016715,2.21928041 82.9997677,2.16353955 83.1373679,2.05277742 C83.2687413,1.94702769 83.3396186,1.78625668 83.35,1.5704644 L83.35,0.638059413 C83.3338552,0.505256344 83.2810752,0.40733932 83.1916599,0.344308343 C83.0833898,0.267986183 82.9384845,0.226550068 82.7569439,0.22 L1.60698306,0.22 C1.26927169,0.228419105 1.04514714,0.269855219 0.934609404,0.344308343 C0.811104069,0.427495843 0.716234267,0.636517493 0.65,0.971373293 L0.65,1.39650726 C0.698874904,1.70272215 0.793744705,1.92147887 0.934609404,2.05277742 C1.07091366,2.17982522 1.25321282,2.23556608 1.48150687,2.22 L7.92,2.22 C7.92,36.22 7.92,53.22 7.92,53.22 Z M74.08,52.22 L9.92,52.22 L9.92,2.22 L74.08,2.22 L74.08,52.22 Z" id="Shape" fill="#515151" fill-rule="nonzero"></path>
            <path d="M17.5,19.5 L62.5,19.5" id="Path" stroke="#515151" fill="#000000"></path>
            <path d="M17.5,25.5 L62.5,25.5" id="Path" stroke="#515151" fill="#000000"></path>
            <path d="M17.5,31.5 L41.5,31.5" id="Path" stroke="#515151" fill="#000000"></path>
        </g>
    </g>
</svg>