<?xml version="1.0" encoding="UTF-8" standalone="no"?>
<svg width="140px" height="140px" viewBox="0 0 140 140" version="1.1" xmlns="http://www.w3.org/2000/svg" xmlns:xlink="http://www.w3.org/1999/xlink">
    <!-- Generator: Sketch 47.1 (45422) - http://www.bohemiancoding.com/sketch -->
    <title>write-board</title>
    <desc>Created with Sketch.</desc>
    <defs></defs>
    <g id="Page-1" stroke="none" stroke-width="1" fill="none" fill-rule="evenodd">
        <g id="Home" transform="translate(-314.000000, -2162.000000)" fill="#000000">
            <g id="write-board" transform="translate(314.000000, 2162.000000)">
                <g id="Capa_1">
                    <g id="Group">
                        <path d="M135.583636,7.28707071 L74.4163636,7.28707071 L74.4163636,4.41636364 C74.4163636,1.97744108 72.4389226,0 70,0 C67.5610774,0 65.5836364,1.97744108 65.5836364,4.41636364 L65.5836364,7.28707071 L4.41636364,7.28707071 C1.97744108,7.28707071 0.000471380471,9.26451178 0.000471380471,11.7034343 L0.000471380471,26.2775758 C0.000471380471,28.7164983 1.97744108,30.6939394 4.41636364,30.6939394 L7.28707071,30.6939394 L7.28707071,106.435354 C7.28707071,108.874276 9.26451178,110.851717 11.7034343,110.851717 L61.1672727,110.851717 L44.6057912,132.934007 C43.1426263,134.885051 43.5376431,137.653468 45.4891582,139.116633 C46.2834343,139.712929 47.2129966,140 48.1354882,140 C49.4779798,140 50.8039731,139.390034 51.6717845,138.233266 L65.5836364,119.684444 L65.5836364,135.583636 C65.5836364,138.022559 67.5610774,140 70,140 C72.4389226,140 74.4163636,138.022559 74.4163636,135.583636 L74.4163636,119.684444 L88.3282155,138.233266 C89.1960269,139.390034 90.5215488,140 91.8645118,140 C92.7870034,140 93.7165657,139.712458 94.5108418,139.116633 C96.4623569,137.653468 96.8578451,134.884579 95.3942088,132.934007 L78.8327273,110.851717 L128.296566,110.851717 C130.735488,110.851717 132.712458,108.874276 132.712458,106.435354 L132.712458,30.6939394 L135.583636,30.6939394 C138.022559,30.6939394 139.999529,28.7164983 139.999529,26.2775758 L139.999529,11.7034343 C139.999529,9.26451178 138.022559,7.28707071 135.583636,7.28707071 L135.583636,7.28707071 Z M8.83272727,21.8612121 L8.83272727,16.119798 L131.166801,16.119798 L131.166801,21.8612121 L8.83272727,21.8612121 L8.83272727,21.8612121 Z M123.880202,102.01899 L16.119798,102.01899 L16.119798,30.6939394 L123.879731,30.6939394 L123.879731,102.01899 L123.880202,102.01899 Z" id="Shape"></path>
                        <path d="M33.5646465,67.1297643 L99.1482828,67.1297643 C101.587205,67.1297643 103.564646,65.1523232 103.564646,62.7134007 C103.564646,60.2744781 101.587205,58.297037 99.1482828,58.297037 L33.5646465,58.297037 C31.1257239,58.297037 29.1482828,60.2744781 29.1482828,62.7134007 C29.1482828,65.1523232 31.1257239,67.1297643 33.5646465,67.1297643 L33.5646465,67.1297643 Z" id="Shape"></path>
                        <path d="M33.5646465,52.5556229 L48.1387879,52.5556229 C50.5777104,52.5556229 52.5551515,50.5786532 52.5551515,48.1392593 C52.5551515,45.7003367 50.5777104,43.7228956 48.1387879,43.7228956 L33.5646465,43.7228956 C31.1257239,43.7228956 29.1482828,45.7003367 29.1482828,48.1392593 C29.1482828,50.5786532 31.1257239,52.5556229 33.5646465,52.5556229 L33.5646465,52.5556229 Z" id="Shape"></path>
                        <path d="M33.5646465,81.7034343 L77.2870707,81.7034343 C79.7259933,81.7034343 81.7034343,79.7259933 81.7034343,77.2870707 C81.7034343,74.8481481 79.7259933,72.8707071 77.2870707,72.8707071 L33.5646465,72.8707071 C31.1257239,72.8707071 29.1482828,74.8481481 29.1482828,77.2870707 C29.1482828,79.7259933 31.1257239,81.7034343 33.5646465,81.7034343 L33.5646465,81.7034343 Z" id="Shape"></path>
                    </g>
                </g>
            </g>
        </g>
    </g>
</svg>